<?xml version="1.0" encoding="UTF-8" standalone="no"?>
<svg
   width="588.33331"
   height="721.66669"
   viewBox="0 0 17.65 21.650001"
   version="1.1"
   id="svg4"
   sodipodi:docname="delete2.svg"
   inkscape:version="1.1.2 (0a00cf5339, 2022-02-04)"
   xmlns:inkscape="http://www.inkscape.org/namespaces/inkscape"
   xmlns:sodipodi="http://sodipodi.sourceforge.net/DTD/sodipodi-0.dtd"
   xmlns="http://www.w3.org/2000/svg"
   xmlns:svg="http://www.w3.org/2000/svg">
  <defs
     id="defs8" />
  <sodipodi:namedview
     id="namedview6"
     pagecolor="#ffffff"
     bordercolor="#666666"
     borderopacity="1.0"
     inkscape:pageshadow="2"
     inkscape:pageopacity="0.0"
     inkscape:pagecheckerboard="0"
     showgrid="false"
     inkscape:zoom="0.89875"
     inkscape:cx="441.72462"
     inkscape:cy="361.05702"
     inkscape:window-width="2490"
     inkscape:window-height="1503"
     inkscape:window-x="70"
     inkscape:window-y="30"
     inkscape:window-maximized="1"
     inkscape:current-layer="svg4" />
  <path
     d="m 1.825,20.825 h 14 c 0.552285,0 1,-0.447715 1,-1 V 5.239 C 16.824943,4.9738052 16.719549,4.7194927 16.532,4.532 L 13.118,1.118 C 12.930507,0.93045062 12.676195,0.82505663 12.411,0.82499999 H 1.825 c -0.5522848,0 -1.00000001,0.44771521 -1.00000001,1.00000001 v 18 c 0,0.552285 0.44771521,1 1.00000001,1 z"
     id="path2"
     style="fill:none;fill-opacity:1;stroke:#000000;stroke-width:1.65;stroke-linecap:square;stroke-linejoin:miter;stroke-miterlimit:4;stroke-dasharray:none;stroke-opacity:1"
     sodipodi:nodetypes="sssccccssss" />
  <path
     d="M 4.3743169,8.3322489 6.3366695,6.3664092 8.8250001,8.8591608 11.31333,6.3664092 13.275683,8.3322489 10.787354,10.825 13.275683,13.317751 11.31333,15.283591 8.8250001,12.79084 6.3366695,15.283591 4.3743169,13.317751 6.8626472,10.825 Z"
     style="fill:#000000;fill-opacity:1;stroke:#000000;stroke-width:0.0687572;stroke-linecap:square;stroke-linejoin:miter;stroke-miterlimit:4;stroke-dasharray:none;stroke-opacity:1"
     id="path3175" />
</svg>
