<svg xmlns="http://www.w3.org/2000/svg" viewBox="0 0 193.819 225.033">
  <path fill="#040404" fill-rule="evenodd" d="M0 90.5V181h50.233l-.582-2.75a721.54 721.54 0 0 1-1.789-9L46.654 163H18V18h71v41h40v19.795l6.75 1.161c3.713.638 7.762 1.408 9 1.711l2.25.55V50.485l-25.257-25.242L96.486 0H0v90.5m95-52V53h29.474L110 38.5C102.039 30.525 95.408 24 95.263 24 95.118 24 95 30.525 95 38.5m16.5 53.073c-48.747 10.777-69.088 70.348-37.257 109.111 35.91 43.73 107.508 25.472 118.361-30.184 9.115-46.74-34.539-89.222-81.104-78.927m6.075 8.477c-48.406 8.202-66.377 66.558-30.819 100.076 36.968 34.847 97.299 8.423 97.232-42.586-.046-35.017-32.622-63.216-66.413-57.49M115 131.973v13.972l-14.25.278-14.25.277-.283 11.25-.283 11.25H115v28h22v-28h29v-23h-29v-28h-22v13.973"/>
</svg>
