<svg width="666.939" height="566.803" viewBox="0 0 20.008 17.004" data-name="025_SCIENCE" id="_025_SCIENCE" version="1.1" xmlns="http://www.w3.org/2000/svg"><defs id="defs4"><style id="style2">.cls-1{fill:#333}</style></defs><path class="cls-1" d="M7.004 12.004a1 1 0 0 1-1-1v-2a1 1 0 0 1 2 0v2a1 1 0 0 1-1 1z" id="path6"/><path class="cls-1" d="M13.004 12.004a1 1 0 0 1-1-1v-2a1 1 0 0 1 2 0v2a1 1 0 0 1-1 1z" id="path8"/><path class="cls-1" d="M4.004 5.004a1 1 0 0 1-.71-.29l-3-3a1.004 1.004 0 0 1 1.42-1.42l3 3a1 1 0 0 1 0 1.42 1 1 0 0 1-.71.29z" id="path10"/><path class="cls-1" d="M16.004 5.004a1 1 0 0 1-.71-.29 1 1 0 0 1 0-1.42l3-3a1.004 1.004 0 1 1 1.42 1.42l-3 3a1 1 0 0 1-.71.29z" id="path12"/><path class="cls-1" d="M19.004 17.004h-18a1 1 0 0 1-1-1v-4.5a10 10 0 0 1 20 0v4.5a1 1 0 0 1-1 1zm-17-2h16v-3.5a8 8 0 0 0-16 0z" id="path14"/></svg>
