<?xml version="1.0" encoding="UTF-8" standalone="no"?>
<!-- Uploaded to: SVG Repo, www.svgrepo.com, Generator: SVG Repo Mixer Tools -->

<svg
   fill="#000000"
   height="200"
   width="106.62289"
   version="1.1"
   id="Capa_1"
   viewBox="0 0 2.7499375 5.15825"
   xml:space="preserve"
   sodipodi:docname="left-arrowhead-svgrepo-com.svg"
   inkscape:version="1.1.2 (0a00cf5339, 2022-02-04)"
   xmlns:inkscape="http://www.inkscape.org/namespaces/inkscape"
   xmlns:sodipodi="http://sodipodi.sourceforge.net/DTD/sodipodi-0.dtd"
   xmlns="http://www.w3.org/2000/svg"
   xmlns:svg="http://www.w3.org/2000/svg"><defs
   id="defs39" /><sodipodi:namedview
   id="namedview37"
   pagecolor="#ffffff"
   bordercolor="#666666"
   borderopacity="1.0"
   inkscape:pageshadow="2"
   inkscape:pageopacity="0.0"
   inkscape:pagecheckerboard="0"
   showgrid="false"
   inkscape:zoom="0.89875"
   inkscape:cx="213.07371"
   inkscape:cy="400"
   inkscape:window-width="2490"
   inkscape:window-height="1503"
   inkscape:window-x="70"
   inkscape:window-y="30"
   inkscape:window-maximized="1"
   inkscape:current-layer="Capa_1" />
<g
   id="g34"
   transform="matrix(-0.25,0,0,0.25,3.954,0)">
	<path
   d="m 5.015,10.79 9.646,9.646 c 0.13,0.133 0.302,0.197 0.471,0.197 0.173,0 0.344,-0.064 0.473,-0.197 l 0.013,-0.011 c 0.127,-0.12 0.198,-0.293 0.198,-0.473 v -4.68 c 0,-0.182 -0.07,-0.347 -0.198,-0.475 L 11.139,10.32 15.618,5.837 C 15.745,5.714 15.816,5.543 15.816,5.364 V 0.682 c 0,-0.176 -0.07,-0.345 -0.198,-0.474 L 15.605,0.196 C 15.483,0.071 15.313,0 15.132,0 14.959,0 14.786,0.071 14.661,0.196 L 5.015,9.845 c -0.265,0.259 -0.265,0.687 0,0.945 z"
   id="path2" />
	<g
   id="g4">
	</g>
	<g
   id="g6">
	</g>
	<g
   id="g8">
	</g>
	<g
   id="g10">
	</g>
	<g
   id="g12">
	</g>
	<g
   id="g14">
	</g>
	<g
   id="g16">
	</g>
	<g
   id="g18">
	</g>
	<g
   id="g20">
	</g>
	<g
   id="g22">
	</g>
	<g
   id="g24">
	</g>
	<g
   id="g26">
	</g>
	<g
   id="g28">
	</g>
	<g
   id="g30">
	</g>
	<g
   id="g32">
	</g>
</g>
</svg>
